<?xml version="1.0" standalone="no"?>
<!DOCTYPE svg PUBLIC "-//W3C//DTD SVG 20010904//EN"
 "http://www.w3.org/TR/2001/REC-SVG-20010904/DTD/svg10.dtd">
<svg version="1.0" xmlns="http://www.w3.org/2000/svg"
 width="48.000000pt" height="48.000000pt" viewBox="0 0 48.000000 48.000000"
 preserveAspectRatio="xMidYMid meet">

<g transform="translate(0.000000,48.000000) scale(0.100000,-0.100000)"
fill="#ffffff" stroke="none">
<path d="M210 449 c-130 -52 -161 -288 -51 -398 32 -32 95 -60 107 -48 2 2
-20 19 -48 38 -61 40 -90 90 -96 166 -9 104 37 191 123 233 34 16 36 19 15 19
-14 0 -36 -5 -50 -10z"/>
<path d="M255 420 c-58 -24 -105 -110 -105 -190 0 -202 220 -275 309 -102 11
21 10 22 -32 22 -38 0 -45 -4 -56 -26 -14 -31 -9 -41 9 -19 7 8 20 15 29 15
11 -1 6 -9 -17 -30 -25 -24 -42 -30 -76 -30 -85 0 -141 78 -134 187 6 94 62
158 140 158 36 0 46 -6 83 -48 52 -57 75 -62 45 -9 -30 53 -76 82 -131 81 -24
0 -53 -4 -64 -9z"/>
<path d="M82 374 c-57 -68 -66 -168 -23 -252 16 -32 72 -95 59 -67 -2 6 -15
33 -28 60 -35 71 -34 160 2 238 15 31 25 57 23 57 -2 0 -17 -16 -33 -36z"/>
<path d="M301 345 c19 -32 25 -35 65 -35 51 0 54 7 17 41 -20 18 -25 20 -20 7
9 -25 -20 -23 -35 2 -7 11 -21 20 -30 20 -16 0 -15 -3 3 -35z"/>
<path d="M314 138 c-4 -7 -14 -23 -22 -35 -13 -21 -13 -23 5 -23 16 0 53 45
53 64 0 11 -29 6 -36 -6z"/>
</g>
</svg>
